PathFileType	4	(X/Y/Z)	C:\Users\Basilio\Documents\Thesis Gigler\squatting_fais\c3dfiles\038\SLS_front_pre2\markers_experimental.trc
DataRate	CameraRate	NumFrames	NumMarkers	Units	OrigDataRate	OrigDataStartFrame	OrigNumFrames
200.000000	200.000000	4	61	mm	200.000000	0	1369
Frame#	Time	FHD			LBHD			RBHD			C7			T10			CLAV			LSHO			LUUPA			LMUPA			LDUPA			LLEP			LMEP			LUL			LRFIN			RSHO			RUPA1			RMUPA			RDUPA			RLEP			RMEP			RRAD			RUL			RUFIN			LASI			RASI			USACR			LSACR			RSACR			LTHI1			LTHI2			LTHI3			LTHI4			LLFC			LMFC			LTIB1			LTIB2			LTIB3			LTIB4			LLMAL			LMMAL			LHEE			LMT1			LMT2			LMT5			RTHI			RTHI2			RTHI3			RTHI4			RLFC			RMFC			RTIB1			RTIB2			RTIB3			RTIB4			RLMAL			RMMAL			RHEE			RMT1			RMT2			RMT5			LRAD			
		X1	Y1	Z1	X2	Y2	Z2	X3	Y3	Z3	X4	Y4	Z4	X5	Y5	Z5	X6	Y6	Z6	X7	Y7	Z7	X8	Y8	Z8	X9	Y9	Z9	X10	Y10	Z10	X11	Y11	Z11	X12	Y12	Z12	X13	Y13	Z13	X14	Y14	Z14	X15	Y15	Z15	X16	Y16	Z16	X17	Y17	Z17	X18	Y18	Z18	X19	Y19	Z19	X20	Y20	Z20	X21	Y21	Z21	X22	Y22	Z22	X23	Y23	Z23	X24	Y24	Z24	X25	Y25	Z25	X26	Y26	Z26	X27	Y27	Z27	X28	Y28	Z28	X29	Y29	Z29	X30	Y30	Z30	X31	Y31	Z31	X32	Y32	Z32	X33	Y33	Z33	X34	Y34	Z34	X35	Y35	Z35	X36	Y36	Z36	X37	Y37	Z37	X38	Y38	Z38	X39	Y39	Z39	X40	Y40	Z40	X41	Y41	Z41	X42	Y42	Z42	X43	Y43	Z43	X44	Y44	Z44	X45	Y45	Z45	X46	Y46	Z46	X47	Y47	Z47	X48	Y48	Z48	X49	Y49	Z49	X50	Y50	Z50	X51	Y51	Z51	X52	Y52	Z52	X53	Y53	Z53	X54	Y54	Z54	X55	Y55	Z55	X56	Y56	Z56	X57	Y57	Z57	X58	Y58	Z58	X59	Y59	Z59	X60	Y60	Z60	X61	Y61	Z61	

1	0	-243.0602111816407	1767.535766601563	-975.7280883789065	-400.2061462402345	1723.72900390625	-1038.447998046875	-393.5034179687501	1706.45703125	-894.0009765625002	-444.074920654297	1527.539916992188	-968.0153808593752	-388.5841674804689	1249.954833984375	-962.274597167969	-299.9317016601563	1529.225341796875	-979.7407836914065	-374.3839416503907	1557.3994140625	-1120.372192382813	-209.7431793212891	1487.681518554688	-1249.08642578125	-181.2700347900391	1521.8134765625	-1223.469604492188	-140.4349060058594	1493.1474609375	-1256.592041015625	-78.94408416748048	1493.599975585938	-1257.064208984375	-71.72564697265626	1420.657104492188	-1230.936279296875	215.8086242675782	1493.226684570313	-1234.53857421875	282.3862304687501	1509.5283203125	-1147.099243164063	-352.6074218750001	1548.00537109375	-831.3396606445315	-191.0840454101563	1500.387451171875	-717.9838867187501	-155.4648590087891	1515.297119140625	-748.5686645507814	-122.9457015991211	1493.017700195313	-702.3884887695314	-50.02175521850587	1488.58203125	-693.5084228515626	-47.35979461669923	1412.566162109375	-717.3195190429689	225.6840972900391	1475.856079101563	-773.9046630859377	236.3746185302735	1488.241943359375	-705.2654418945314	307.3062744140626	1505.920288085938	-778.8845214843752	-203.8558502197266	1077.5009765625	-1080.374389648438	-210.8268127441407	1087.39892578125	-826.2929687500002	-378.0056457519532	1124.461181640625	-959.0246582031252	-390.1792297363282	1095.242553710938	-986.2812500000002	-393.171112060547	1095.762329101563	-931.410827636719	-267.5129089355469	754.9532470703126	-1132.451904296875	-244.8384704589844	673.4161376953126	-1125.274658203125	-197.9850311279297	674.1049804687501	-1103.954223632813	-277.0083007812501	626.9477539062501	-1105.533813476563	-278.6010742187501	563.9563598632814	-1099.503784179688	-263.9585571289063	551.6921997070314	-979.9256591796877	-254.4982147216797	371.3622131347657	-1037.81689453125	-301.6717224121094	334.7184753417969	-1104.115356445313	-266.7932739257813	326.6805419921876	-1076.145385742188	-281.0238342285157	246.8125305175782	-1051.522705078125	-370.0368347167969	115.9352493286133	-1072.844848632813	-328.8253784179688	128.9657745361328	-1004.674255371094	-417.4019470214845	94.61214447021486	-1017.690307617188	-216.6294097900391	48.78561019897462	-1019.033874511719	-210.7861633300782	45.68754577636719	-1070.090454101563	-257.3305969238282	31.73755836486817	-1114.52294921875	-284.5423889160157	816.0292968750002	-769.5502929687502	-253.6969909667969	756.3850708007814	-762.1585693359376	-220.8947448730469	753.6204223632814	-766.3847045898439	-290.9359130859376	679.8095092773439	-781.677673339844	-289.5550537109376	542.5524291992189	-784.9202270507815	-288.2360534667969	537.7764282226564	-906.6668701171877	-253.5127258300782	364.3679809570313	-806.1701660156252	-331.6218566894532	288.4602050781251	-765.4166870117189	-285.5448913574219	289.5811462402344	-776.2635498046877	-278.0382995605469	237.6683654785157	-804.5722656250002	-346.2489318847657	119.127311706543	-772.0010986328127	-316.8153686523438	124.1667022705078	-850.4526977539065	-406.3357849121095	85.55641937255861	-832.5686035156252	-193.7393188476563	49.52480697631837	-826.3118286132815	-195.8172302246094	48.38061141967775	-779.579772949219	-239.4160919189454	34.47377014160157	-734.8168945312501	nan	nan	nan	
2	0.005	-243.3275604248047	1767.823486328125	-975.3779296875002	-400.2124633789064	1723.7294921875	-1038.281372070313	-393.575653076172	1706.015625	-893.447448730469	-444.0789489746095	1527.550170898438	-967.9082641601565	-388.5634765625001	1249.993530273438	-962.157409667969	-299.8531494140626	1529.21337890625	-979.5781860351565	-374.4019165039063	1557.421508789063	-1120.193603515625	-209.7535858154297	1487.751953125	-1248.975463867188	-181.2838897705078	1521.845336914063	-1223.332763671875	-140.4437408447266	1493.186645507813	-1256.490356445313	-78.9844207763672	1493.653442382813	-1256.978515625	-71.72252655029298	1420.69091796875	-1230.822509765625	215.8636627197266	1493.300659179688	-1234.430541992188	282.3224182128907	1509.608520507813	-1147.023559570313	-352.6167297363282	1547.960571289063	-831.2226562500002	-191.0982818603516	1500.345947265625	-717.8869018554689	-155.4309692382813	1515.264404296875	-748.4469604492189	-122.9617004394532	1492.956176757813	-702.2786254882814	-50.03807830810548	1488.5283203125	-693.4091186523439	-47.32630157470704	1412.487548828125	-717.2395629882814	225.6383666992188	1475.757202148438	-773.8391113281252	236.3687591552735	1488.193481445313	-705.1804199218751	307.2327270507813	1505.8857421875	-778.7785644531252	-203.8707733154297	1077.517944335938	-1080.311889648438	-210.7951965332032	1087.419067382813	-826.251647949219	-378.0011901855469	1124.4521484375	-958.9046020507815	-390.1428527832032	1095.269409179688	-986.1898193359377	-393.146697998047	1095.7763671875	-931.269226074219	-267.5914611816407	754.9575195312501	-1132.399658203125	-244.8975830078126	673.4051513671876	-1125.287231445313	-198.0686187744141	674.1066894531251	-1103.936279296875	-277.0497436523438	626.9560546875001	-1105.48974609375	-278.6633605957032	563.9462890625001	-1099.458862304688	-263.9376831054688	551.7256469726564	-979.8836059570315	-254.4982147216797	371.3622131347657	-1037.81689453125	-301.7315979003907	334.7500610351563	-1104.077026367188	-266.8048095703126	326.6548767089844	-1076.107666015625	-281.0238037109376	246.8125152587891	-1051.522705078125	-370.0401916503907	115.911979675293	-1072.835327148438	-328.8343505859376	128.9597778320313	-1004.705322265625	-417.3331298828126	94.59839630126955	-1017.652282714844	-216.5927276611329	48.73810958862306	-1019.032958984375	-210.7672271728516	45.71171188354493	-1070.093139648438	-257.3042907714844	31.61592674255372	-1114.4404296875	-284.4836120605469	816.0045166015627	-769.4817504882815	-253.5906524658204	756.3055419921876	-762.0596313476564	-220.852279663086	753.6214599609376	-766.3566894531251	-290.8885192871094	679.8436889648439	-781.6563720703127	-289.5016479492188	542.5465087890626	-784.8679199218752	-288.2286071777344	537.7761230468751	-906.6363525390627	-253.4727630615235	364.3735656738282	-806.166442871094	-331.5917053222657	288.4653320312501	-765.3823852539064	-285.5145874023438	289.5574035644532	-776.2824707031252	-278.0603027343751	237.6535339355469	-804.5590820312502	-346.2579650878907	119.1289901733399	-771.9844970703127	-316.8362121582032	124.1687545776367	-850.4766845703127	-406.3408508300782	85.56858825683595	-832.5999145507815	-193.801254272461	49.51732635498048	-826.3057861328127	-195.8014068603516	48.39110946655275	-779.5635375976565	-239.4070892333985	34.45965194702149	-734.7984008789064	nan	nan	nan	
3	0.01	-243.100082397461	1767.488159179688	-975.346374511719	-400.2327880859376	1723.73291015625	-1038.1298828125	-393.4976196289064	1706.444580078125	-893.629089355469	-444.043182373047	1527.551635742188	-967.8159179687502	-388.5215454101564	1249.966064453125	-962.0872192382815	-300.0745544433594	1528.533081054688	-979.5426025390627	-374.4164733886719	1557.429931640625	-1120.06640625	-209.777816772461	1487.821533203125	-1248.843872070313	-181.3232116699219	1521.90283203125	-1223.24072265625	-140.346923828125	1493.263305664063	-1256.556274414063	-79.23756408691408	1493.782470703125	-1257.557006835938	-71.69634246826173	1420.762939453125	-1230.712768554688	215.7893981933594	1493.384643554688	-1234.33154296875	282.3519592285157	1509.646362304688	-1146.940795898438	-352.6497192382813	1547.901000976563	-831.073181152344	-191.0798645019532	1500.2724609375	-717.7921752929689	-155.4152221679688	1515.162963867188	-748.3531494140626	-122.9408645629883	1492.878540039063	-702.1927490234376	-50.0013885498047	1488.49462890625	-693.3224487304689	-47.30250549316407	1412.447387695313	-717.0871582031251	225.7434539794922	1475.776245117188	-773.746520996094	236.3910064697266	1488.147705078125	-705.0780029296876	307.2182617187501	1505.909912109375	-778.6967773437502	-203.878890991211	1077.51171875	-1080.279418945313	-210.7758483886719	1087.408081054688	-826.1978759765627	-377.9409484863282	1124.44970703125	-958.835876464844	-390.0178833007814	1095.3828125	-986.0541992187502	-389.3535156250001	1096.158813476563	-930.1021118164065	-267.6062622070313	754.9376831054689	-1132.3818359375	-244.9473724365235	673.4363403320314	-1125.2138671875	-198.1266021728516	674.1315307617189	-1103.932739257813	-277.1208190917969	626.9710083007814	-1105.466430664063	-278.6671142578126	563.9797363281251	-1099.4658203125	-263.9313049316407	551.7265625000001	-979.859313964844	-254.5467376708985	371.3670349121094	-1037.80126953125	-301.7294616699219	334.7628173828126	-1104.10009765625	-266.8126220703126	326.6762084960938	-1076.118530273438	-281.0588989257813	246.8256072998047	-1051.520141601563	-370.0070800781251	115.9406509399414	-1072.856323242188	-328.8476257324219	128.9520568847657	-1004.685119628906	-417.4018859863282	94.61208343505861	-1017.690368652344	-216.624984741211	48.76001358032228	-1019.055786132813	-210.8133544921876	45.70886993408204	-1070.074462890625	-257.2855834960938	31.74187660217286	-1114.527099609375	-284.4267883300782	816.025573730469	-769.4291992187502	-253.5926055908204	756.3067626953126	-762.0569458007814	-220.8164215087891	753.5980834960939	-766.3346557617189	-290.8514404296876	679.8255004882814	-781.6112060546877	-289.5089721679688	542.5323486328126	-784.8643798828127	-288.1781311035157	537.7703247070314	-906.5886840820315	-253.5049743652344	364.3722534179688	-806.125915527344	-331.5917053222657	288.4653320312501	-765.3823852539064	-285.5498046875001	289.5862121582032	-776.2503051757815	-278.0523376464844	237.6511230468751	-804.5443115234377	-346.2579650878907	119.1289901733399	-771.9844970703127	-316.8772583007813	124.1578521728516	-850.444030761719	-406.3179016113282	85.53454589843751	-832.5905761718752	-193.7760162353516	49.53176116943361	-826.2840576171877	-195.8033294677735	48.39103317260744	-779.5760498046877	-239.4184875488282	34.44062805175782	-734.8108520507814	nan	nan	nan	
4	0.015	-243.0461120605469	1767.521850585938	-975.296569824219	-400.2296142578126	1723.759155273438	-1037.97412109375	-393.4559936523439	1706.415283203125	-893.4990234375002	-444.0573120117189	1527.567016601563	-967.6827392578127	-388.5767822265626	1249.99169921875	-961.9945068359377	-299.8206176757813	1529.232788085938	-979.4212036132815	-374.4326782226563	1557.4873046875	-1119.977172851563	-209.7361450195313	1487.882202148438	-1248.734619140625	-181.3361206054688	1521.95703125	-1223.088256835938	-140.3614349365235	1493.326171875	-1256.2978515625	-78.90975189208986	1493.770874023438	-1256.80029296875	-71.73622131347658	1420.817260742188	-1230.617309570313	215.7547454833985	1493.44677734375	-1234.1943359375	282.3708801269532	1509.684204101563	-1146.789428710938	-352.6264648437501	1547.857666015625	-830.9465942382815	-191.0618743896485	1500.200561523438	-717.7077636718751	-155.3895416259766	1515.146240234375	-748.2527465820314	-122.9423141479492	1492.823608398438	-702.0982666015626	-50.02288818359376	1488.451538085938	-693.2446899414064	-47.29073715209962	1412.348999023438	-717.0024414062501	225.7309112548829	1475.777587890625	-773.7067871093752	236.3883514404297	1488.12939453125	-704.9935302734376	307.2471313476563	1505.8876953125	-778.6164550781252	-203.853256225586	1077.52734375	-1080.234985351563	-210.7060089111329	1087.44677734375	-826.196228027344	-377.9494628906251	1124.459716796875	-958.7158203125002	-389.9705810546876	1095.384765625	-985.962341308594	-389.3023376464845	1096.181518554688	-930.0437622070315	-267.6437072753907	754.9558105468751	-1132.34033203125	-244.9836730957032	673.4125366210939	-1125.206420898438	-198.1671752929688	674.1268310546876	-1103.93310546875	-277.1535339355469	626.9718017578126	-1105.434814453125	-278.3315734863282	564.4282836914064	-1099.343627929688	-264.0037536621094	551.7269287109376	-979.8310546875002	-254.5467376708985	371.3670349121094	-1037.80126953125	-301.7392578125001	334.7050476074219	-1104.098754882813	-266.8491821289063	326.7027893066407	-1076.114013671875	-281.0296936035157	246.8774871826172	-1051.491943359375	-370.0164184570313	115.8877029418946	-1072.830322265625	-328.3468322753907	129.3359832763672	-1004.379150390625	-417.4013977050782	94.61126708984376	-1017.69091796875	-216.6295013427735	48.785701751709	-1019.033813476563	-210.8022918701172	45.70152664184571	-1070.107177734375	-257.2989196777344	31.62096023559571	-1114.436767578125	-284.4257507324219	815.9974365234377	-769.3469238281252	-253.5472564697266	756.3042602539064	-762.0197753906251	-220.8003997802735	753.5926513671876	-766.3082275390626	-290.8038635253907	679.8264770507814	-781.5632324218752	-289.5089721679688	542.5323486328126	-784.8643798828127	-288.1733703613282	537.7675170898439	-906.5980224609377	-253.4876403808594	364.3589477539063	-806.1699218750002	-331.5997924804688	288.4509887695313	-765.3790283203126	-285.5523376464844	289.5485839843751	-776.2478027343752	-278.0166320800782	237.6585235595704	-804.574645996094	-346.2579650878907	119.1289901733399	-771.9844970703127	-316.8518066406251	124.1602935791016	-850.4656982421877	-406.3404235839845	85.5525360107422	-832.5928955078127	-193.8595733642579	49.26922988891603	-826.3969726562502	-195.3628540039063	48.82406234741212	-779.2496337890627	-239.4390563964844	34.45490264892579	-734.8256835937501	nan	nan	nan	
